<svg id="Capa_1" enable-background="new 0 0 512 512" height="512" viewBox="0 0 512 512" width="512" xmlns="http://www.w3.org/2000/svg"><g><g><path d="m210.158 512c-1.964 0-3.926-.755-5.415-2.262-2.954-2.991-2.926-7.81.064-10.764l48.801-48.218c13.185-13.028 13.249-34.256.143-47.363-12.941-12.94-34.06-13.005-47.079-.142l-93.255 92.14c-19.002 18.776-49.828 18.684-68.718-.206-19.048-19.048-19.049-49.877 0-68.926l38.911-39.056c2.966-2.979 7.786-2.988 10.764-.02 2.978 2.967 2.987 7.787.02 10.764l-38.921 39.065c-13.118 13.118-13.103 34.313-.01 47.407 12.989 12.989 34.188 13.054 47.254.142l93.255-92.14c18.954-18.729 49.702-18.636 68.544.206 19.081 19.081 18.989 49.989-.207 68.956l-48.801 48.218c-1.484 1.468-3.418 2.199-5.35 2.199z" fill="#dbedff"/></g><path d="m104.475 351.3-25.316 25.316c-4.747 4.747-4.882 12.309-.301 16.89l9.357 9.357c4.581 4.581 12.143 4.446 16.89-.301l25.316-25.316z" fill="#3f6d8e"/><path d="m93.258 389.675 24.797-24.797-13.58-13.578-25.316 25.316c-4.747 4.747-4.882 12.309-.301 16.89l9.357 9.357c.375.375.776.706 1.187 1.018-1.338-4.827-.04-10.309 3.856-14.206z" fill="#365e7d"/><path d="m337.007 202.787-58.072-58.072c-2.784-2.784-4.341-6.349-4.675-10.009l-171.78 190.217c-7.114 7.878-6.821 19.935.668 27.423l26.229 26.229c7.489 7.489 19.545 7.782 27.423.668l190.217-171.78c-3.661-.336-7.226-1.893-10.01-4.676z" fill="#477b9e"/><path d="m125.886 348.1 169.141-187.295-16.091-16.091c-2.784-2.784-4.341-6.349-4.676-10.009l-171.78 190.217c-7.115 7.878-6.821 19.935.668 27.423l20.686 20.687c-4.927-7.653-4.299-17.9 2.052-24.932z" fill="#3f6d8e"/><path d="m370.564 186.769-75.611-75.611c-.931-.931-1.757-1.948-2.485-3.025l-13.736 13.736c-6.472 6.472-6.582 16.954-.243 23.292l58.072 58.072c6.338 6.338 16.82 6.229 23.292-.243l13.736-13.736c-1.076-.729-2.093-1.554-3.025-2.485z" fill="#f4dd45"/><path d="m305.742 152.133 15.094-15.094-25.882-25.882c-.931-.931-1.757-1.948-2.485-3.025l-13.736 13.736c-6.472 6.472-6.582 16.954-.243 23.292l21.677 21.677c-.319-5.256 1.534-10.664 5.575-14.704z" fill="#fcc101"/><path d="m258.525 232.892-9.695-9.695c-2.931-2.931-3.339-7.457-1.241-10.842l-34.908 34.908c-3.364 3.364-3.364 8.868 0 12.232l9.547 9.547c3.364 3.364 8.868 3.364 12.232 0l34.908-34.908c-3.386 2.097-7.913 1.688-10.843-1.242z" fill="#3f6d8e"/><g><g><g><path d="m222.962 259.371 31.021-31.021-5.153-5.153c-2.931-2.931-3.339-7.457-1.241-10.842l-34.908 34.908c-3.364 3.364-3.364 8.868 0 12.232l7.502 7.502c-.224-2.734.699-5.546 2.779-7.626z" fill="#365e7d"/></g></g></g><g><g><path d="m185.452 303.881c-1.948 0-3.896-.743-5.382-2.229-2.973-2.972-2.973-7.792 0-10.764l8.649-8.649c2.972-2.972 7.792-2.972 10.764 0 2.973 2.972 2.973 7.792 0 10.764l-8.649 8.649c-1.486 1.485-3.434 2.229-5.382 2.229z" fill="#7fb3fa"/></g></g><path d="m291.542 199.727-9.547-9.547c-3.364-3.364-8.868-3.364-12.232 0l-22.425 22.425c-3.364 3.364-3.364 8.868 0 12.232l9.547 9.547c3.364 3.364 8.868 3.364 12.232 0l22.425-22.425c3.364-3.364 3.364-8.869 0-12.232z" fill="#f87c68"/><path d="m256.632 223.315 23.548-23.548c2.475-2.475 6.052-3.209 9.187-2.215l-7.372-7.372c-3.364-3.364-8.868-3.364-12.232 0l-22.425 22.425c-3.364 3.364-3.364 8.868 0 12.232l6.866 6.866c-.643-2.93.161-6.121 2.428-8.388z" fill="#ec625e"/><path d="m454.364 29.307c-37.682-38.746-99.645-39.074-137.738-.982-18.941 18.941-28.382 43.783-28.326 68.608.013 5.532 2.219 10.834 6.13 14.746l75.611 75.611c3.912 3.912 9.216 6.118 14.749 6.13 24.474.055 48.965-9.122 67.8-27.531 37.948-37.086 38.766-98.544 1.774-136.582z" fill="#dbedff"/><path d="m318.998 131.387c-.059-25.653 9.698-51.325 29.271-70.897 31.608-31.608 79.118-37.61 116.774-18.021-3.124-4.617-6.665-9.033-10.679-13.161-37.682-38.746-99.645-39.074-137.737-.981-18.941 18.941-28.382 43.783-28.326 68.608.013 5.532 2.219 10.834 6.13 14.746l25.354 25.354c-.499-1.828-.782-3.722-.787-5.648z" fill="#b5dcff"/></g></svg>