<svg id="Capa_1" enable-background="new 0 0 512 512" height="512" viewBox="0 0 512 512" width="512" xmlns="http://www.w3.org/2000/svg"><g><g><g><path d="m330.559 440.655v-412.742c0-15.415-12.495-27.911-27.91-27.913h-249.125-.065c-17.925 0-32.455 14.531-32.455 32.455v.065 403.527.065c0 17.925 14.531 32.455 32.455 32.455h.065 249.123c15.415.001 27.912-12.496 27.912-27.912z" fill="#ebb044"/><path d="m361.698 0h-67.292c15.416 0 27.913 12.497 27.913 27.913v412.743c0 15.416-12.497 27.913-27.913 27.913h67.292c15.416 0 27.913-12.497 27.913-27.913v-412.743c-.001-15.416-12.498-27.913-27.913-27.913z" fill="#e29624"/><g><g><g><g><g><g><g><g><g><g><g><g><g><path d="m376.747 484.087v-407.7l-24.779-24.779c-5.235-5.235-12.334-8.175-19.737-8.175h-235.275c-17.961 0-32.52 14.56-32.52 32.52v403.592c0 17.925 14.531 32.455 32.455 32.455h251.946c15.415-.001 27.91-12.498 27.91-27.913z" fill="#fffbe4"/><path d="m368.488 125.291c-1.17 0-2.312-.119-3.417-.341v359.137c0 15.416-12.497 27.913-27.912 27.913h67.971c15.416 0 27.913-12.497 27.913-27.913v-339.843c0-3.989-.899-7.994-2.507-11.562l-12.41-7.391z" fill="#fbf4c6"/><path d="m424.867 124.507-72.899-72.899c-2.387-2.387-5.161-4.296-8.175-5.668v69.438c0 9.557 7.748 17.305 17.305 17.305h69.438c-1.373-3.015-3.283-5.789-5.669-8.176z" fill="#eabc6b"/></g></g></g></g></g></g></g></g></g></g></g></g><g><path d="m463.933 220.78 24.701-24.701c3.15-3.15 3.15-8.258 0-11.409l-14.804-14.804c-3.15-3.15-8.258-3.151-11.409 0l-24.701 24.701z" fill="#5766cb"/><g><g><path d="m396.172 359.735c-1.978 0-3.955-.755-5.464-2.263-3.017-3.017-3.017-7.909 0-10.927l70.405-70.406c1.063-1.063 1.649-2.476 1.649-3.978 0-1.503-.586-2.916-1.648-3.978l-35.399-35.399c-3.017-3.017-3.017-7.909 0-10.927 3.018-3.017 7.909-3.017 10.928 0l35.398 35.398c3.981 3.981 6.174 9.275 6.174 14.905 0 5.631-2.193 10.925-6.175 14.905l-70.404 70.405c-1.509 1.51-3.487 2.265-5.464 2.265z" fill="#beb9dd"/></g><g><path d="m233.007 456.632-40.664 15.668c-3.845 1.482-7.625-2.298-6.143-6.143l15.668-40.663c2.595-6.734 6.572-12.85 11.675-17.952l215.622-215.622c4.497-4.497 11.788-4.497 16.285 0l21.132 21.131c4.497 4.497 4.497 11.788 0 16.285l-215.623 215.621c-5.103 5.103-11.218 9.08-17.952 11.675z" fill="#dd636e"/></g><path d="m365.072 330.845 101.509-101.509c4.497-4.497 4.497-11.788 0-16.285l-21.132-21.131c-4.497-4.497-11.788-4.497-16.285 0l-64.093 64.093v74.832z" fill="#da4a54"/><g><path d="m233.007 456.632-40.664 15.668c-3.845 1.482-7.625-2.298-6.143-6.143l15.668-40.663c2.595-6.734 6.572-12.85 11.675-17.952l37.416 37.416c-5.103 5.102-11.218 9.079-17.952 11.674z" fill="#938bc6"/></g></g></g></g></g><g><path d="m150.146 106.163h-43.609c-4.268 0-7.726 3.459-7.726 7.726s3.459 7.726 7.726 7.726h13.99v71.239c0 4.267 3.459 7.726 7.726 7.726 4.268 0 7.726-3.459 7.726-7.726v-71.239h14.166c4.268 0 7.726-3.459 7.726-7.726s-3.457-7.726-7.725-7.726z" fill="#3d4fc3"/><g fill="#dddaec"><path d="m190.873 121.616h108.101c4.268 0 7.726-3.459 7.726-7.726s-3.459-7.726-7.726-7.726h-108.101c-4.268 0-7.726 3.459-7.726 7.726s3.459 7.726 7.726 7.726z"/><path d="m298.974 145.646h-108.101c-4.268 0-7.726 3.459-7.726 7.726s3.459 7.726 7.726 7.726h108.101c4.268 0 7.726-3.459 7.726-7.726s-3.459-7.726-7.726-7.726z"/><path d="m298.974 185.128h-108.101c-4.268 0-7.726 3.459-7.726 7.726s3.459 7.726 7.726 7.726h108.101c4.268 0 7.726-3.459 7.726-7.726s-3.459-7.726-7.726-7.726z"/></g></g></g></g></svg>