<svg height="512pt" viewBox="0 -9 512.00018 512" width="512pt" xmlns="http://www.w3.org/2000/svg"><path d="m512 388.414062v52.964844c0 29.253906-23.714844 52.964844-52.964844 52.964844v-105.929688zm0 0" fill="#f3d55b"/><path d="m512 123.585938v-17.65625c.015625-6.019532-1.03125-11.996094-3.089844-17.652344-7.433594-21.175782-27.4375-35.335938-49.875-35.3125h-406.070312v35.3125zm0 0" fill="#b19046"/><path d="m0 335.449219c0 29.25 23.714844 52.964843 52.964844 52.964843h406.070312c29.25 0 52.964844 23.714844 52.964844 52.964844v-123.585937zm0 0" fill="#7f6e5d"/><path d="m512 379.585938v61.792968c0-29.25-23.714844-52.964844-52.964844-52.964844h-17.65625v-35.308593h8.828125s44.136719 0 61.792969 26.480469zm0 0" fill="#b19046"/><path d="m370.757812 353.105469h35.3125v35.308593h-35.3125zm0 0" fill="#b19046"/><path d="m300.136719 353.105469h35.3125v35.308593h-35.3125zm0 0" fill="#b19046"/><path d="m229.515625 353.105469h35.3125v35.308593h-35.3125zm0 0" fill="#b19046"/><path d="m158.898438 353.105469h35.308593v35.308593h-35.308593zm0 0" fill="#b19046"/><path d="m88.277344 353.105469h35.308594v35.308593h-35.308594zm0 0" fill="#b19046"/><path d="m52.964844 353.105469v35.308593c-29.25 0-52.964844-23.714843-52.964844-52.964843 17.65625 17.65625 52.964844 17.65625 52.964844 17.65625zm0 0" fill="#b19046"/><path d="m52.964844 88.277344h397.242187c24.832031 1.960937 47.496094 14.910156 61.792969 35.308594v256c-17.65625-26.480469-61.792969-26.480469-61.792969-26.480469h-397.242187s-35.308594 0-52.964844-17.65625zm0 0" fill="#e4c05c"/><path d="m52.964844 52.964844h35.3125v35.3125h-35.3125zm0 0" fill="#7f6e5d"/><path d="m123.585938 52.964844h35.3125v35.3125h-35.3125zm0 0" fill="#7f6e5d"/><path d="m194.207031 52.964844h35.308594v35.3125h-35.308594zm0 0" fill="#7f6e5d"/><path d="m264.828125 52.964844h35.308594v35.3125h-35.308594zm0 0" fill="#7f6e5d"/><path d="m335.449219 52.964844h35.308593v35.3125h-35.308593zm0 0" fill="#7f6e5d"/><path d="m406.070312 52.964844h35.308594v35.3125h-35.308594zm0 0" fill="#7f6e5d"/><path d="m344.277344 220.691406c0 48.75-39.523438 88.273438-88.277344 88.273438s-88.277344-39.523438-88.277344-88.273438c0-48.753906 39.523438-88.277344 88.277344-88.277344s88.277344 39.523438 88.277344 88.277344zm0 0" fill="#e6e7e8"/><path d="m308.964844 220.691406-88.273438-41.898437v83.792969zm0 0" fill="#cc4b4c"/><g fill="#b19046"><path d="m105.929688 132.414062c0 4.875-3.949219 8.828126-8.828126 8.828126-4.875 0-8.824218-3.953126-8.824218-8.828126s3.949218-8.828124 8.824218-8.828124c4.878907 0 8.828126 3.953124 8.828126 8.828124zm0 0"/><path d="m105.929688 167.722656c0 4.875-3.949219 8.828125-8.828126 8.828125-4.875 0-8.824218-3.953125-8.824218-8.828125s3.949218-8.824218 8.824218-8.824218c4.878907 0 8.828126 3.949218 8.828126 8.824218zm0 0"/><path d="m105.929688 203.035156c0 4.875-3.949219 8.828125-8.828126 8.828125-4.875 0-8.824218-3.953125-8.824218-8.828125s3.949218-8.828125 8.824218-8.828125c4.878907 0 8.828126 3.953125 8.828126 8.828125zm0 0"/><path d="m105.929688 238.34375c0 4.875-3.949219 8.828125-8.828126 8.828125-4.875 0-8.824218-3.953125-8.824218-8.828125s3.949218-8.828125 8.824218-8.828125c4.878907 0 8.828126 3.953125 8.828126 8.828125zm0 0"/><path d="m105.929688 273.65625c0 4.875-3.949219 8.828125-8.828126 8.828125-4.875 0-8.824218-3.953125-8.824218-8.828125s3.949218-8.828125 8.824218-8.828125c4.878907 0 8.828126 3.953125 8.828126 8.828125zm0 0"/><path d="m105.929688 308.964844c0 4.875-3.949219 8.828125-8.828126 8.828125-4.875 0-8.824218-3.953125-8.824218-8.828125s3.949218-8.828125 8.824218-8.828125c4.878907 0 8.828126 3.953125 8.828126 8.828125zm0 0"/><path d="m423.722656 132.414062c0 4.875-3.949218 8.828126-8.824218 8.828126-4.878907 0-8.828126-3.953126-8.828126-8.828126s3.949219-8.828124 8.828126-8.828124c4.875 0 8.824218 3.953124 8.824218 8.828124zm0 0"/><path d="m423.722656 167.722656c0 4.875-3.949218 8.828125-8.824218 8.828125-4.878907 0-8.828126-3.953125-8.828126-8.828125s3.949219-8.824218 8.828126-8.824218c4.875 0 8.824218 3.949218 8.824218 8.824218zm0 0"/><path d="m423.722656 203.035156c0 4.875-3.949218 8.828125-8.824218 8.828125-4.878907 0-8.828126-3.953125-8.828126-8.828125s3.949219-8.828125 8.828126-8.828125c4.875 0 8.824218 3.953125 8.824218 8.828125zm0 0"/><path d="m423.722656 238.34375c0 4.875-3.949218 8.828125-8.824218 8.828125-4.878907 0-8.828126-3.953125-8.828126-8.828125s3.949219-8.828125 8.828126-8.828125c4.875 0 8.824218 3.953125 8.824218 8.828125zm0 0"/><path d="m423.722656 273.65625c0 4.875-3.949218 8.828125-8.824218 8.828125-4.878907 0-8.828126-3.953125-8.828126-8.828125s3.949219-8.828125 8.828126-8.828125c4.875 0 8.824218 3.953125 8.824218 8.828125zm0 0"/><path d="m423.722656 308.964844c0 4.875-3.949218 8.828125-8.824218 8.828125-4.878907 0-8.828126-3.953125-8.828126-8.828125s3.949219-8.828125 8.828126-8.828125c4.875 0 8.824218 3.953125 8.824218 8.828125zm0 0"/></g><path d="m52.964844 0v282.484375c-29.25 0-52.964844 23.710937-52.964844 52.964844v-282.484375c0-29.25 23.714844-52.964844 52.964844-52.964844zm0 0" fill="#f3d55b"/></svg>