<svg id="Layer_1" enable-background="new 0 0 463.74 463.74" height="512" viewBox="0 0 463.74 463.74" width="512" xmlns="http://www.w3.org/2000/svg"><path d="m330.648 451.711c-1.458-4.171.741-8.734 4.912-10.192 32.481-11.355 57.085-38.211 65.817-71.839 1.11-4.277 5.477-6.842 9.754-5.732 4.276 1.11 6.843 5.478 5.732 9.754-10.075 38.802-38.495 69.801-76.023 82.921-4.171 1.458-8.734-.745-10.192-4.912z" fill="#42434d"/><path d="m324.87 426.74c10.22 0 18.5 8.28 18.5 18.5s-8.28 18.5-18.5 18.5h-21c-10.22 0-18.5-8.28-18.5-18.5s8.28-18.5 18.5-18.5z" fill="#585966"/><path d="m325.935 426.77c6.371.362 5.957 9.97-.424 9.97h-3.641c-15.931 0-18.74 12.001-18.602 20.704.058 3.632-3.625 6.176-6.942 4.693-6.648-2.972-11.219-9.75-10.944-17.566.353-10.027 8.897-17.831 18.93-17.831 0 0 21.271.01 21.623.03z" fill="#6e6f80"/><path d="m420.37 223.955v-38.885c0-246.83-380-246.69-380 0v38.886c-22.93 9.81-39 32.594-39 59.114v33.34c0 35.5 28.78 64.28 64.28 64.28 6.06 0 9.508.374 14.056-1.71 3.44 10.32 13.184 17.76 24.664 17.76 14.36 0 26-11.64 26-26v-142c0-14.36-11.64-26-26-26-11.48 0-21.224 7.44-24.664 17.76-1.25-.57-2.566-1.01-3.946-1.3v-30.58c0-197.78 309.22-197.9 309.22 0v30.58c-2.601.547-3.793 1.3-3.95 1.3-3.44-10.32-13.18-17.76-24.66-17.76-14.36 0-26 11.64-26 26v142c0 14.36 11.64 26 26 26 11.48 0 21.22-7.44 24.66-17.76.264 0 3.162 1.709 7.9 1.709h6.16c35.5 0 64.28-28.78 64.28-64.28v-33.34c0-26.519-16.07-49.304-39-59.114z" fill="#cbe3fa"/><path d="m404.98 202.62v10.282c0 3.423-2.859 6.179-6.277 5.989-1.197-.067-2.402-.109-3.613-.1-5.262.042-7.096-.231-10.11.41v-30.58c0-21.548-3.666-40.747-10.199-57.598-2.694-6.949 7.043-11.616 10.791-5.174 12.206 20.977 19.408 46.567 19.408 76.771z" fill="#eef7ff"/><path d="m217.154.399c10.2-.618 11.674 14.422 1.563 15.906-83.355 12.242-158.347 73.176-158.347 182.765v12.946c0 3.82-2.693 7.154-6.45 7.845-4.718.868-9.256 2.258-13.55 4.094v-38.885c0-117.622 86.389-179.194 176.784-184.671z" fill="#eef7ff"/><path d="m459.37 283.07v33.34c0 35.5-28.78 64.28-64.28 64.28-6.17 0-9.527.363-14.05-1.709-.144 0 1.33-3.056 1.33-8.24v-142c0-2.88-.47-5.65-1.34-8.24.104 0 1.531-.792 3.95-1.3 2.525-.537 3.966-.41 10.11-.41 35.404-.001 64.28 28.684 64.28 64.279z" fill="#80aaff"/><path d="m459.37 283.07c0 4.245-5.674 5.587-7.629 1.818-15.321-29.535-49.672-42.428-69.371-34.928 0-22.1.44-24.16-1.34-29.46.104 0 1.532-.792 3.95-1.3 2.525-.537 3.966-.41 10.11-.41 35.404 0 64.28 28.685 64.28 64.28z" fill="#9cbcff"/><path d="m398.275 373.014c-.171 4.289-3.689 7.675-7.982 7.676-2.976.001-5.671-.068-9.254-1.709-.144 0 1.33-3.056 1.33-8.24v-142c0-2.88-.47-5.65-1.34-8.24.264 0 3.175-1.713 7.9-1.709h1.388c4.231.002 7.739 3.298 7.982 7.523.058.978.184 141.479-.024 146.699z" fill="#719efa"/><path d="m382.37 228.74v142c0 14.298-11.588 26-26 26-14.36 0-26-11.64-26-26v-142c0-14.36 11.64-26 26-26 14.411 0 26 11.702 26 26z" fill="#585966"/><path d="m356.839 202.744c7.753.137 10.89 10.179 4.586 14.693-6.437 4.609-11.055 12.236-11.055 21.303 0 0 .004 142.504.011 142.755.224 7.848-9.74 11.379-14.557 5.178-3.418-4.4-5.454-9.928-5.454-15.933v-141.415c0-13.947 11.704-26.842 26.469-26.581z" fill="#6e6f80"/><path d="m79.706 220.5c-.87 2.59-1.336 5.36-1.336 8.24v142c0 2.88.466 5.65 1.336 8.24-4.503 2.064-7.699 1.71-14.056 1.71-35.5 0-64.28-28.78-64.28-64.28v-33.34c0-26.52 16.07-49.304 39-59.114 12.86-5.502 22.515-5.166 31.44-5.166 2.749 0 5.411.577 7.896 1.71z" fill="#80aaff"/><path d="m79.706 220.5c-2.097 6.243-1.067 10.326-1.336 20.64-27.071 7.511-47 32.438-47 61.93v33.34c0 6.226.886 12.246 2.539 17.94 2.275 7.838-7.343 13.74-13.181 8.036-11.943-11.671-19.358-27.96-19.358-45.976v-33.34c0-26.52 16.07-49.304 39-59.114 15.396-6.587 27.804-4.883 31.44-5.166 2.666 0 5.331.54 7.896 1.71z" fill="#9cbcff"/><path d="m130.37 228.74v142c0 14.36-11.64 26-26 26-14.39 0-26-11.672-26-26v-142c0-14.335 11.617-26 26-26 14.36 0 26 11.64 26 26z" fill="#585966"/><path d="m104.839 202.744c7.753.137 10.89 10.179 4.586 14.693-6.437 4.609-11.055 12.236-11.055 21.303 0 0 .004 142.504.011 142.755.224 7.848-9.74 11.379-14.557 5.178-3.418-4.4-5.454-9.928-5.454-15.933v-141.415c0-13.947 11.704-26.842 26.469-26.581z" fill="#6e6f80"/><path d="m454.9 61.1-10.85-3.94c-3.09-10.1-8.43-19.2-15.45-26.73l2.02-11.4c.83-4.69-1.36-9.41-5.49-11.79l-9.52-5.49c-4.13-2.39-9.3-1.93-12.95 1.14l-8.84 7.43c-9.936-2.279-20.603-2.362-30.9 0l-8.84-7.43c-3.65-3.07-8.82-3.53-12.95-1.14l-9.52 5.49c-4.13 2.38-6.32 7.1-5.49 11.79l2.02 11.4c-7.02 7.53-12.36 16.63-15.45 26.73l-10.85 3.94c-4.49 1.62-7.47 5.88-7.47 10.65v10.98c0 4.77 2.98 9.03 7.47 10.65l10.85 3.94c3.09 10.1 8.43 19.2 15.45 26.73l-2.02 11.4c-.83 4.69 1.36 9.41 5.49 11.79l9.52 5.49c4.13 2.39 9.3 1.93 12.95-1.14l8.84-7.43c9.935 2.279 20.603 2.362 30.9 0l8.84 7.43c3.65 3.07 8.82 3.53 12.95 1.14l9.52-5.49c4.13-2.38 6.32-7.1 5.49-11.79l-2.02-11.4c7.02-7.53 12.36-16.63 15.45-26.73l10.85-3.94c4.49-1.62 7.47-5.88 7.47-10.65v-10.98c0-4.77-2.98-9.03-7.47-10.65z" fill="#ff6d7a"/><path d="m421.885 17.272c-2.534-.295-5.391.235-8.225 2.618l-5.587 4.696c-1.952 1.64-4.565 2.263-7.04 1.648-34.069-8.463-66.808 10.699-76.392 44.098-.704 2.453-2.55 4.408-4.948 5.279l-6.853 2.489c-3.841 1.386-5.756 3.93-6.689 6.628-2.217 6.414-11.577 5.19-11.776-1.592-.009-.32-.004-1.601-.006-11.387 0-4.77 2.98-9.03 7.47-10.65l10.85-3.94c3.09-10.1 8.43-19.2 15.45-26.73l-2.02-11.4c-.83-4.69 1.36-9.41 5.49-11.79l9.52-5.49c4.13-2.39 9.3-1.93 12.95 1.14l8.84 7.43c9.935-2.279 20.603-2.362 30.9 0l8.84-7.43c3.65-3.07 8.82-3.53 12.95-1.14l9.52 5.49c5.318 3.065 2.455 10.696-3.244 10.033z" fill="#ff8c95"/><circle cx="378.37" cy="77.74" fill="#cbe3fa" r="41"/><path d="m358.235 96.155c1.581 7.579-8.384 12.034-12.959 5.789-5.027-6.861-7.972-15.344-7.904-24.515.163-22.03 18.13-40.356 40.378-40.685 7.898-.117 10.255 10.529 3.118 13.914-17.065 8.096-26.548 26.731-22.633 45.497z" fill="#9ec7f0"/></svg>